<?xml version="1.0" standalone="no"?>
<!DOCTYPE svg PUBLIC "-//W3C//DTD SVG 20010904//EN"
 "http://www.w3.org/TR/2001/REC-SVG-20010904/DTD/svg10.dtd">
<svg version="1.0" xmlns="http://www.w3.org/2000/svg"
 width="1024.000000pt" height="1024.000000pt" viewBox="0 0 1024.000000 1024.000000"
 preserveAspectRatio="xMidYMid meet">
<metadata>
Created by potrace 1.11, written by Peter Selinger 2001-2013
</metadata>
<g transform="translate(0.000000,1024.000000) scale(0.100000,-0.100000)"
fill="#000000" stroke="none">
<path d="M0 5120 l0 -5120 5120 0 5120 0 0 5120 0 5120 -5120 0 -5120 0 0
-5120z m3908 3347 l3 -68 42 3 42 3 3 63 3 62 157 1 c86 1 169 2 185 3 27 2
27 2 27 -66 l0 -68 45 0 44 0 3 65 3 65 188 3 187 2 0 -67 0 -68 45 0 44 0 3
66 3 66 185 0 185 0 3 -66 3 -66 44 0 45 0 0 68 0 67 187 -2 188 -3 3 -65 3
-65 44 0 45 0 0 68 0 67 182 -3 c101 -2 185 -6 187 -8 2 -2 4 -29 5 -61 l1
-58 42 -3 42 -3 3 68 3 67 180 -2 c99 -1 183 -2 188 -2 4 0 7 -115 7 -255 l0
-255 120 0 120 0 0 -65 0 -65 45 0 45 0 0 65 0 65 185 0 184 0 3 -62 3 -63 42
-3 42 -3 3 63 3 63 188 3 187 2 -3 -1737 -3 -1738 -22 -139 c-85 -519 -289
-972 -613 -1365 -48 -58 -545 -565 -1103 -1126 l-1016 -1020 -636 640 c-1513
1522 -1454 1461 -1561 1605 -291 392 -455 781 -536 1272 -21 132 -21 140 -24
1871 l-4 1737 188 -2 188 -3 3 -62 3 -63 44 0 45 0 0 65 0 65 185 0 185 0 0
-65 0 -65 45 0 44 0 3 63 3 62 118 3 117 3 0 254 0 254 158 4 c86 2 171 3 187
2 l30 0 3 -68z"/>
<path d="M3670 7322 l0 -1068 288 1 287 0 115 -32 c63 -18 167 -48 230 -68 63
-19 129 -35 147 -35 l31 0 4 248 c3 243 3 248 29 303 31 66 90 129 151 160 32
17 66 24 130 27 76 4 92 1 141 -21 78 -35 139 -95 173 -170 l29 -62 0 -227 c0
-124 3 -229 6 -232 3 -3 46 3 95 14 198 45 235 52 379 75 83 13 204 33 270 45
105 18 306 39 373 40 l22 0 0 1035 0 1035 -45 0 -45 0 0 -65 0 -65 -190 0
-190 0 0 65 0 65 -45 0 -45 0 0 -65 0 -65 -190 0 -190 0 0 65 0 65 -45 0 -45
0 0 -65 0 -65 -187 2 -188 3 -1 45 c-2 83 -1 80 -44 80 l-40 0 0 -65 0 -65
-190 0 -190 0 0 65 0 65 -45 0 -45 0 0 -65 0 -65 -190 0 -190 0 0 65 0 65 -45
0 -45 0 0 -65 0 -65 -190 0 -190 0 0 65 0 65 -45 0 -45 0 0 -1068z m365 543
l0 -110 -72 -3 -73 -3 0 116 0 116 73 -3 72 -3 0 -110z m385 0 l0 -115 -69 0
-69 0 -4 103 c-3 56 -3 108 0 115 3 8 27 12 73 12 l69 0 0 -115z m560 0 l0
-115 -70 0 -70 0 0 115 0 115 70 0 70 0 0 -115z m381 105 c0 -5 1 -44 1 -85 0
-41 -1 -88 -1 -105 l-1 -30 -70 0 -70 0 0 115 0 115 70 0 c40 0 70 -4 71 -10z
m579 -105 l0 -115 -70 0 -70 0 0 115 0 115 70 0 70 0 0 -115z m385 0 l0 -110
-72 -3 -73 -3 0 116 0 116 73 -3 72 -3 0 -110z m-1345 -592 l0 -118 -68 1 -67
0 -3 112 -3 111 68 4 c37 2 69 4 71 5 1 1 2 -51 2 -115z m-942 2 c0 -68 -4
-107 -11 -112 -9 -5 -76 -7 -129 -4 -5 1 -8 51 -8 111 l0 110 74 0 74 0 0
-105z m382 -4 l0 -109 -62 -4 c-35 -3 -67 -3 -73 -1 -8 2 -11 136 -5 221 0 1
32 2 70 2 l70 0 0 -109z m942 8 c2 -56 1 -104 -2 -109 -7 -9 -96 -19 -121 -13
-17 5 -19 15 -19 114 l0 109 69 0 70 0 3 -101z m576 -10 l-3 -111 -65 0 -65 0
-3 111 -3 111 71 0 71 0 -3 -111z m392 1 l0 -110 -45 -1 c-25 -1 -52 -1 -60
-1 -46 0 -45 -3 -45 112 l0 110 75 0 75 0 0 -110z"/>
<path d="M2517 7872 c-16 -3 -17 -26 -15 -350 l3 -347 375 -2 375 -2 0 -68 0
-68 -377 -3 -378 -2 0 -354 0 -354 123 5 c92 4 158 0 272 -16 158 -22 582 -71
615 -71 20 0 20 13 20 815 l0 815 -45 0 -45 0 0 -65 0 -65 -187 2 -188 3 -3
63 -3 62 -44 0 -45 0 0 -65 0 -65 -187 2 -188 3 -3 63 c-2 39 -7 62 -15 63 -7
0 -19 2 -27 3 -8 1 -23 1 -33 -2z m331 -379 l3 -113 -76 0 -75 0 0 115 0 116
73 -3 72 -3 3 -112z m482 2 l0 -116 -72 3 -72 3 -4 69 c-2 38 -1 88 3 112 l6
44 70 0 69 0 0 -115z"/>
<path d="M6710 7112 c0 -417 2 -761 5 -764 6 -6 149 15 230 33 28 6 171 47
319 90 148 44 310 89 360 100 50 11 97 23 104 25 9 2 12 55 12 219 l0 215
-377 2 -378 3 -3 68 -3 67 381 0 380 0 0 350 0 350 -45 0 -44 0 -3 -62 -3 -63
-187 -3 -188 -2 0 65 0 65 -45 0 -45 0 0 -65 0 -65 -190 0 -190 0 0 65 0 65
-45 0 -45 0 0 -758z m350 383 l0 -115 -75 0 -75 0 0 108 c0 60 3 112 7 115 3
4 37 7 75 7 l68 0 0 -115z m480 0 l0 -115 -69 0 c-39 0 -72 3 -74 8 -2 4 -2
55 1 115 l5 107 68 0 69 0 0 -115z"/>
<path d="M5006 6696 c-21 -13 -49 -41 -62 -62 -23 -38 -24 -45 -24 -276 l0
-238 180 0 180 0 0 229 c0 249 -4 273 -57 323 -57 54 -150 65 -217 24z"/>
<path d="M7575 6410 c-77 -21 -194 -54 -260 -73 -66 -20 -158 -47 -205 -60
-156 -46 -410 -88 -646 -107 -72 -5 -194 -21 -270 -34 -76 -14 -202 -34 -279
-46 -170 -26 -473 -94 -488 -109 -6 -6 -27 -11 -46 -11 -20 0 -101 -16 -181
-35 -80 -19 -164 -35 -187 -35 -49 0 -205 39 -435 109 -367 111 -338 106 -573
105 -115 -1 -264 -6 -330 -12 -135 -13 -199 -8 -700 54 -250 31 -302 35 -380
28 l-90 -9 0 -615 0 -615 575 -2 c316 -2 578 -3 583 -3 4 0 7 -139 7 -310 l0
-310 435 0 435 0 0 465 0 465 1600 0 1600 0 0 600 c0 474 -3 600 -12 599 -7 0
-76 -18 -153 -39z m-847 -402 l-3 -73 -82 -3 -82 -3 -3 33 c-2 18 -1 52 1 76
l3 42 84 0 85 0 -3 -72z m-2583 -63 l0 -70 -150 0 -150 0 -1 65 c-1 36 1 68 3
73 3 4 71 6 151 5 l147 -3 0 -70z m1933 -67 l-3 -73 -154 0 -155 0 2 70 c0 39
1 71 2 73 0 1 70 2 155 2 l156 0 -3 -72z m-3023 -2 c171 -36 338 -64 427 -72
l76 -7 4 -66 c2 -36 2 -68 1 -70 -12 -18 -321 24 -533 73 l-105 24 -55 -29
c-30 -16 -67 -36 -82 -46 -26 -17 -28 -17 -41 1 -29 39 -61 110 -52 113 6 2
51 28 100 58 62 38 98 53 115 50 14 -2 79 -15 145 -29z m4276 -211 c51 -30 97
-56 101 -57 9 -3 -47 -114 -62 -123 -5 -3 -44 15 -87 40 l-78 45 -120 -26
c-192 -41 -333 -64 -432 -71 l-93 -6 0 69 0 70 143 17 c78 10 223 35 322 56
99 22 188 39 197 40 9 1 59 -24 109 -54z m-2742 -65 l126 -1 33 -53 c38 -64
39 -72 10 -80 -36 -9 -476 -7 -482 3 -3 4 -3 39 1 76 l6 68 90 -7 c50 -3 147
-6 216 -6z m-1137 -92 c2 -7 4 -26 3 -43 -1 -16 -3 -45 -3 -62 l-2 -33 -85 0
-85 0 0 68 c0 38 2 71 4 73 3 2 40 5 84 7 58 2 81 -1 84 -10z m2263 -103 l0
-70 -157 -3 -158 -3 0 76 0 76 158 -3 157 -3 0 -70z m-2805 -185 l0 -70 -160
0 -160 0 0 70 0 70 160 0 160 0 0 -70z"/>
<path d="M4680 5045 l0 -55 80 0 80 0 0 55 0 55 -80 0 -80 0 0 -55z"/>
<path d="M4980 5045 l0 -55 150 0 150 0 0 55 0 55 -150 0 -150 0 0 -55z"/>
<path d="M5427 5093 c-4 -7 -3 -32 2 -90 1 -10 38 -13 150 -13 l149 0 -3 48
c-2 26 -4 50 -4 55 -1 4 -66 7 -145 7 -80 0 -147 -3 -149 -7z"/>
<path d="M5870 5045 l0 -55 150 0 150 0 0 55 0 55 -150 0 -150 0 0 -55z"/>
<path d="M6310 5045 l0 -55 150 0 150 0 0 55 0 55 -150 0 -150 0 0 -55z"/>
<path d="M6760 5045 l0 -55 150 0 150 0 0 55 0 55 -150 0 -150 0 0 -55z"/>
<path d="M7200 5045 l0 -55 150 0 150 0 0 55 0 55 -150 0 -150 0 0 -55z"/>
<path d="M7647 5093 c-2 -5 -2 -14 -1 -20 1 -7 2 -29 3 -48 1 -35 1 -35 46
-35 l45 0 0 55 0 55 -44 0 c-25 0 -47 -3 -49 -7z"/>
<path d="M4680 4782 l0 -59 190 0 190 -1 0 59 0 59 -190 0 -190 0 0 -58z"/>
<path d="M5210 4781 l0 -59 148 1 147 2 3 58 3 57 -151 0 -150 0 0 -59z"/>
<path d="M5650 4781 l0 -59 150 -1 150 0 0 60 0 59 -150 0 -150 0 0 -59z"/>
<path d="M6090 4786 c0 -50 2 -54 26 -60 14 -4 81 -6 150 -5 l124 1 0 59 0 59
-150 0 -150 0 0 -54z"/>
<path d="M6540 4780 l0 -59 150 2 150 2 0 58 0 57 -150 0 -150 0 0 -60z"/>
<path d="M6980 4781 l0 -58 123 -1 c179 0 177 -1 177 64 l0 54 -150 0 -150 0
0 -59z"/>
<path d="M7430 4781 l0 -58 153 1 152 1 3 58 3 57 -156 0 -155 0 0 -59z"/>
<path d="M2500 4768 c0 -18 3 -43 6 -55 l6 -23 509 0 509 0 0 55 0 55 -515 0
-515 0 0 -32z"/>
<path d="M4680 4041 l0 -538 31 -7 c40 -8 232 -8 253 0 14 5 16 48 16 380 l0
374 313 -2 312 -3 0 -370 c0 -217 4 -373 9 -377 5 -3 94 -7 198 -8 l188 -1 0
381 0 380 315 0 315 0 2 -377 3 -378 345 -3 c190 -1 359 0 377 3 27 5 36 16
73 85 l41 80 -280 0 -281 0 0 295 0 295 315 0 314 0 -2 -210 c-1 -115 1 -210
4 -210 16 0 78 185 119 352 24 99 46 222 65 366 l4 32 -1525 0 -1524 0 0 -539z"/>
<path d="M2525 4483 c13 -120 62 -334 109 -478 25 -77 50 -147 56 -155 6 -10
10 53 10 193 l0 207 315 0 315 0 0 -375 0 -375 100 0 100 0 0 525 0 525 -506
0 -506 0 7 -67z"/>
<path d="M3677 4173 c-4 -3 -7 -28 -7 -55 l0 -48 435 0 435 0 0 55 0 55 -428
0 c-236 0 -432 -3 -435 -7z"/>
<path d="M2850 3807 l0 -304 128 -5 c70 -4 144 -3 165 1 l38 6 0 290 c-1 160
-1 296 -1 303 0 9 -40 12 -165 12 l-165 0 0 -303z"/>
<path d="M5122 3803 l3 -308 168 -2 167 -2 0 309 0 310 -170 0 -170 0 2 -307z"/>
<path d="M6152 3803 l3 -308 165 0 165 0 0 305 0 305 -168 3 -167 2 2 -307z"/>
<path d="M7050 3955 l0 -155 170 0 170 0 0 154 0 154 -170 2 -170 1 0 -156z"/>
<path d="M3670 3716 c0 -113 3 -207 8 -209 4 -3 198 -7 432 -9 l425 -3 3 213
2 212 -435 0 -435 0 0 -204z"/>
<path d="M2960 3344 c0 -7 63 -100 87 -130 12 -14 42 -27 90 -37 84 -19 139
-45 253 -121 96 -65 158 -86 246 -86 109 0 156 16 270 91 165 111 247 136 402
126 114 -7 182 -32 304 -113 119 -78 155 -95 228 -103 l55 -6 0 -70 0 -70 -45
3 c-111 7 -196 40 -308 119 -108 77 -164 97 -267 98 -111 0 -157 -16 -276 -96
-136 -91 -180 -108 -314 -124 -104 -12 -271 30 -350 89 -16 12 -37 26 -45 30
-8 5 300 -307 685 -693 l700 -701 55 13 c66 16 96 31 198 101 96 65 175 96
264 103 l68 6 0 -70 0 -70 -54 -7 c-70 -8 -114 -27 -213 -92 -45 -30 -108 -66
-139 -81 l-56 -26 158 -158 c87 -88 161 -159 164 -159 7 0 1014 1008 1018
1019 1 4 -18 16 -44 26 -26 10 -83 42 -128 72 -44 30 -98 64 -119 74 -80 41
-255 41 -337 -1 -23 -12 -76 -45 -118 -74 -129 -88 -247 -123 -377 -112 -112
9 -189 38 -312 119 -115 76 -158 94 -230 99 -44 2 -45 4 -45 53 0 8 0 34 1 56
l1 42 58 -7 c90 -10 174 -43 263 -102 141 -94 172 -107 275 -112 115 -5 176
11 264 72 154 106 227 136 355 143 141 8 281 -35 386 -118 57 -45 144 -87 195
-95 l46 -7 264 264 c145 145 264 267 264 271 0 3 -16 12 -36 18 -20 7 -71 36
-113 65 -129 89 -174 107 -271 113 -117 6 -170 -11 -303 -99 -123 -80 -191
-108 -288 -116 l-67 -6 0 70 0 71 57 6 c67 8 133 37 221 98 136 95 206 118
360 118 132 0 205 -24 334 -109 108 -71 170 -100 212 -101 28 0 44 14 129 108
88 96 170 198 234 290 l22 32 -2165 0 c-1191 0 -2166 -3 -2166 -6z"/>
</g>
</svg>
